<svg xmlns="http://www.w3.org/2000/svg" viewBox="0 0 512 512" width="512" height="512">
  <defs>
    <linearGradient id="bgGrad" x1="0%" y1="0%" x2="100%" y2="100%">
      <stop offset="0%" stop-color="#0f172a"/>
      <stop offset="50%" stop-color="#090d16"/>
      <stop offset="100%" stop-color="#020617"/>
    </linearGradient>
    <linearGradient id="goldGrad" x1="0%" y1="0%" x2="100%" y2="100%">
      <stop offset="0%" stop-color="#fef08a"/>
      <stop offset="30%" stop-color="#eab308"/>
      <stop offset="70%" stop-color="#ca8a04"/>
      <stop offset="100%" stop-color="#854d0e"/>
    </linearGradient>
  </defs>

  <rect width="512" height="512" fill="url(#bgGrad)"/>
  
  <g transform="translate(256, 256) scale(0.85)">
    <circle cx="0" cy="0" r="190" fill="#0b1120" stroke="url(#goldGrad)" stroke-width="4"/>
    <path d="M 0,-140 C 77,-140 140,-77 140,0 C 140,77 77,140 0,140 C -77,140 -140,77 -140,0 C -140,-50 -105,-115 -50,-130" 
          fill="none" stroke="url(#goldGrad)" stroke-width="14" stroke-linecap="round"/>
    <path d="M -50,-130 C -95,-110 -115,-50 -115,0 C -115,63 -63,115 0,115 C 63,115 115,63 115,0 C 115,-63 63,-115 0,-115 C -45,-115 -85,-80 -90,-25" 
          fill="none" stroke="url(#goldGrad)" stroke-width="11" stroke-linecap="round"/>
    <path d="M -90,-25 C -90,40 -40,90 0,90 C 40,90 90,40 90,0 C 90,-40 40,-90 0,-90 C -30,-90 -65,-60 -65,-10" 
          fill="none" stroke="url(#goldGrad)" stroke-width="9" stroke-linecap="round"/>
    <path d="M -65,-10 C -65,25 -25,65 0,65 C 25,65 65,25 65,0 C 65,-25 25,-65 0,-65 C -20,-65 -40,-40 -40,0" 
          fill="none" stroke="url(#goldGrad)" stroke-width="7" stroke-linecap="round"/>
    <circle cx="0" cy="0" r="10" fill="url(#goldGrad)"/>
  </g>
</svg>